<svg xmlns="http://www.w3.org/2000/svg" width="29" height="29" viewBox="0 0 29 29" fill="none">
  <g clip-path="url(#clip0_275_645)">
    <path d="M6.42701 17.5245L5.41756 21.2929L1.72805 21.371C0.625426 19.3259 0 16.986 0 14.4995C0 12.095 0.584758 9.82758 1.62128 7.83105H1.62207L4.90678 8.43326L6.34568 11.6982C6.04452 12.5762 5.88037 13.5187 5.88037 14.4995C5.88049 15.5639 6.07329 16.5837 6.42701 17.5245Z" fill="#FBBB00"/>
    <path d="M28.7467 11.791C28.9132 12.6682 29.0001 13.574 29.0001 14.4998C29.0001 15.5379 28.8909 16.5505 28.683 17.5273C27.9771 20.8511 26.1328 23.7535 23.5778 25.8074L23.577 25.8066L19.4397 25.5955L18.8542 21.9402C20.5495 20.946 21.8745 19.39 22.5724 17.5273H14.8188V11.791H22.6855H28.7467Z" fill="#518EF8"/>
    <path d="M23.5768 25.8071L23.5776 25.8079C21.0927 27.8052 17.9361 29.0003 14.5 29.0003C8.97803 29.0003 4.17711 25.9139 1.72803 21.3719L6.42699 17.5254C7.6515 20.7934 10.8041 23.1198 14.5 23.1198C16.0886 23.1198 17.5769 22.6904 18.8539 21.9407L23.5768 25.8071Z" fill="#28B446"/>
    <path d="M23.7554 3.33817L19.058 7.18384C17.7363 6.35768 16.1739 5.88043 14.5001 5.88043C10.7205 5.88043 7.50896 8.31354 6.34579 11.6988L1.62213 7.83159H1.62134C4.03457 3.17884 8.89603 0 14.5001 0C18.0183 0 21.2441 1.25323 23.7554 3.33817Z" fill="#F14336"/>
  </g>
  <defs>
    <clipPath id="clip0_275_645">
      <rect width="29" height="29" fill="white"/>
    </clipPath>
  </defs>
</svg>